# xmcd
#
# Track frame offsets: 
#        150
#        16298
#        29057
#        51682
#        81527
#        93855
#        110968
#        124544
#        146817
#        156273
#        172015
#        182593
#
# Disc length: 2983 seconds
#
# Revision: 0
# Processed by: cddbd v1.5.2PL0 Copyright (c) Steve Scherf et al.
# Submitted via: ExactAudioCopy v1.2
#
DISCID=b00ba50c
DTITLE=John Clifton - Nightlife
DYEAR=2018
DGENRE=Blues
TTITLE0=Strang Land
TTITLE1=Sad About It
TTITLE2=Last Clean Shirt
TTITLE3=Long as I Have You
TTITLE4=Brand New Way to Walk
TTITLE5=Swamp Dump
TTITLE6=How About That
TTITLE7=Still a Fool
TTITLE8=Nightlife
TTITLE9=Wild Ride
TTITLE10=No Better Time Than Now
TTITLE11=Every Now and Then
EXTD=
EXTT0=
EXTT1=
EXTT2=
EXTT3=
EXTT4=
EXTT5=
EXTT6=
EXTT7=
EXTT8=
EXTT9=
EXTT10=
EXTT11=
PLAYORDER=
